# xmcd
#
# Track frame offsets:
# 150
# 18962
# 37505
# 46902
# 67607
# 81747
# 97820
# 118152
# 132260
# 156497
# 175847
# 197537
# 215082
# 234320
#
# Disc length: 3327 seconds
#
#
# Revision: 0
# Processed by: cddbd v1.5.1PL2 Copyright (c) Steve Scherf et al.
# Submitted via: FreeRIP 2.944 
#
DISCID=b00cfd0e
DTITLE=Lucio Yand - Aunque Vegan Degollando
DYEAR=1996
DGENRE=Folklore
TTITLE0=Negrinho do Pastoreio
TTITLE1=La Humilde
TTITLE2=Porá Demas
TTITLE3=Los Ejes De Mi Carreta
TTITLE4=Los Camba
TTITLE5=Misterios
TTITLE6=Lucy
TTITLE7=Aunque Vegan Degollando
TTITLE8=Lagrima India
TTITLE9=Poema da Terra
TTITLE10=Me Anda Buscando Una Bala
TTITLE11=Zamba Para Mi Hijo
TTITLE12=Paisano
TTITLE13=El Dia Que Me Qieras
EXTD=Musica Gaudéria
EXTT0=
EXTT1=
EXTT2=
EXTT3=
EXTT4=
EXTT5=
EXTT6=
EXTT7=
EXTT8=
EXTT9=
EXTT10=
EXTT11=
EXTT12=
EXTT13=
PLAYORDER=
